<?xml version="1.0" encoding="UTF-8" standalone="no"?>
<!-- Created with Inkscape (http://www.inkscape.org/) -->

<svg
   xmlns:dc="http://purl.org/dc/elements/1.1/"
   xmlns:cc="http://creativecommons.org/ns#"
   xmlns:rdf="http://www.w3.org/1999/02/22-rdf-syntax-ns#"
   xmlns:svg="http://www.w3.org/2000/svg"
   xmlns="http://www.w3.org/2000/svg"
   xmlns:sodipodi="http://sodipodi.sourceforge.net/DTD/sodipodi-0.dtd"
   xmlns:inkscape="http://www.inkscape.org/namespaces/inkscape"
   width="12.7mm"
   height="12.7mm"
   viewBox="0 0 12.699999 12.7"
   version="1.1"
   id="svg1150"
   inkscape:version="0.92.4 (5da689c313, 2019-01-14)"
   sodipodi:docname="penguin2t.svg">
  <defs
     id="defs1144" />
  <sodipodi:namedview
     id="base"
     pagecolor="#ffffff"
     bordercolor="#666666"
     borderopacity="1.0"
     inkscape:pageopacity="0.0"
     inkscape:pageshadow="2"
     inkscape:zoom="3.959798"
     inkscape:cx="29.714283"
     inkscape:cy="12.571441"
     inkscape:document-units="mm"
     inkscape:current-layer="layer1"
     showgrid="false"
     inkscape:pagecheckerboard="true"
     borderlayer="true"
     inkscape:window-width="1920"
     inkscape:window-height="1044"
     inkscape:window-x="0"
     inkscape:window-y="0"
     inkscape:window-maximized="1" />
  <metadata
     id="metadata1147">
    <rdf:RDF>
      <cc:Work
         rdf:about="">
        <dc:format>image/svg+xml</dc:format>
        <dc:type
           rdf:resource="http://purl.org/dc/dcmitype/StillImage" />
        <dc:title></dc:title>
      </cc:Work>
    </rdf:RDF>
  </metadata>
  <g
     inkscape:label="Layer 1"
     inkscape:groupmode="layer"
     id="layer1"
     transform="translate(27.516666,-192.37619)">
    <g
       transform="translate(-49.382589,-83.476012)"
       id="g1721">
      <g
         transform="translate(19.605151,-5.3791597)"
         id="g979">
        <path
           style="opacity:1;fill:#000000;fill-opacity:1;stroke:none;stroke-width:2;stroke-linecap:round;stroke-miterlimit:4;stroke-dasharray:none;stroke-opacity:0"
           id="path973"
           sodipodi:type="arc"
           sodipodi:cx="6.4941034"
           sodipodi:cy="287.52695"
           sodipodi:rx="1.1929874"
           sodipodi:ry="1.1929874"
           sodipodi:start="0"
           sodipodi:end="6.1667369"
           sodipodi:open="true"
           d="m 7.6870909,287.52695 a 1.1929874,1.1929874 0 0 1 -1.158262,1.19248 1.1929874,1.1929874 0 0 1 -1.2256913,-1.12306 1.1929874,1.1929874 0 0 1 1.0869071,-1.25786 1.1929874,1.1929874 0 0 1 1.2889667,1.04983" />
        <path
           d="m 11.920427,287.52695 a 1.1929874,1.1929874 0 0 1 -1.158262,1.19248 1.1929874,1.1929874 0 0 1 -1.225691,-1.12306 1.1929874,1.1929874 0 0 1 1.086907,-1.25786 1.1929874,1.1929874 0 0 1 1.288967,1.04983"
           sodipodi:open="true"
           sodipodi:end="6.1667369"
           sodipodi:start="0"
           sodipodi:ry="1.1929874"
           sodipodi:rx="1.1929874"
           sodipodi:cy="287.52695"
           sodipodi:cx="10.72744"
           sodipodi:type="arc"
           id="path975"
           style="opacity:1;fill:#000000;fill-opacity:1;stroke:none;stroke-width:2;stroke-linecap:round;stroke-miterlimit:4;stroke-dasharray:none;stroke-opacity:0" />
      </g>
      <rect
         style="opacity:1;fill:#0c0c0c;fill-opacity:1;stroke:none;stroke-width:2.00735903;stroke-linecap:round;stroke-miterlimit:4;stroke-dasharray:none;stroke-opacity:0"
         id="rect1033"
         width="12.7"
         height="12.7"
         x="21.865923"
         y="275.8522" />
      <g
         id="g1039"
         transform="translate(19.655072,-5.3791597)">
        <path
           d="m 8.343709,286.60986 a 2.3510809,3.0401909 0 0 1 -2.2826457,3.03891 2.3510809,3.0401909 0 0 1 -2.4155321,-2.86199 2.3510809,3.0401909 0 0 1 2.1420231,-3.20552 2.3510809,3.0401909 0 0 1 2.5402321,2.67538"
           sodipodi:open="true"
           sodipodi:end="6.1667369"
           sodipodi:start="0"
           sodipodi:ry="3.0401909"
           sodipodi:rx="2.3510809"
           sodipodi:cy="286.60986"
           sodipodi:cx="5.9926281"
           sodipodi:type="arc"
           id="path1035"
           style="opacity:1;fill:#ffffff;fill-opacity:1;stroke:none;stroke-width:6.33891058;stroke-linecap:round;stroke-miterlimit:4;stroke-dasharray:none;stroke-opacity:0" />
        <path
           style="opacity:1;fill:#ffffff;fill-opacity:1;stroke:none;stroke-width:6.33891058;stroke-linecap:round;stroke-miterlimit:4;stroke-dasharray:none;stroke-opacity:0"
           id="path1037"
           sodipodi:type="arc"
           sodipodi:cx="11.129073"
           sodipodi:cy="286.60986"
           sodipodi:rx="2.3510809"
           sodipodi:ry="3.0401909"
           sodipodi:start="0"
           sodipodi:end="6.1667369"
           sodipodi:open="true"
           d="m 13.480154,286.60986 a 2.3510809,3.0401909 0 0 1 -2.282646,3.03891 2.3510809,3.0401909 0 0 1 -2.4155317,-2.86199 2.3510809,3.0401909 0 0 1 2.1420227,-3.20552 2.3510809,3.0401909 0 0 1 2.540232,2.67538" />
      </g>
      <path
         style="fill:#ff6600;fill-opacity:1;stroke:none;stroke-width:0.37147045px;stroke-linecap:butt;stroke-linejoin:miter;stroke-opacity:1"
         d="m 28.215923,284.55407 c 0,0 -1.152281,0.0445 -1.376661,0.47491 -0.316892,0.67677 0.719943,1.40936 1.376661,1.40936 0.656717,0 1.693552,-0.73259 1.37666,-1.40936 -0.22438,-0.43042 -1.37666,-0.47491 -1.37666,-0.47491 z"
         id="path1041"
         inkscape:connector-curvature="0"
         sodipodi:nodetypes="ccacc" />
      <path
         sodipodi:nodetypes="acccaccca"
         inkscape:connector-curvature="0"
         style="fill:#ff6600;stroke:none;stroke-width:0.26458332px;stroke-linecap:butt;stroke-linejoin:miter;stroke-opacity:1"
         d="m 28.215923,284.31186 c -0.517414,0 -1.152281,0.2867 -1.376661,0.71712 -0.04876,0.10413 -0.06102,0.20377 -0.05013,0.29869 0.0064,0.005 0.01181,0.0106 0.02119,0.0165 0.271485,0.17279 0.892608,0.41846 1.369943,0.41703 0.483806,-10e-4 1.054713,-0.21653 1.385962,-0.43098 0.03188,-0.0206 0.05606,-0.0407 0.08268,-0.061 -1.74e-4,-0.0771 -0.01757,-0.15751 -0.05633,-0.24029 -0.224381,-0.43042 -0.859247,-0.71712 -1.376661,-0.71712 z"
         id="path1049" />
      <path
         sodipodi:nodetypes="zzzcz"
         inkscape:connector-curvature="0"
         id="path1059"
         d="m 26.789136,285.32767 c 0.165365,-0.26212 0.914028,-0.47714 1.426786,-0.48205 0.512757,-0.005 1.269188,0.16059 1.432987,0.42362 0.163799,0.26303 -0.545824,0.87868 -1.432987,0.87571 -0.607828,-0.0131 -1.592151,-0.55516 -1.426786,-0.81728 z"
         style="fill:#aa0000;stroke:none;stroke-width:0.26458332px;stroke-linecap:butt;stroke-linejoin:miter;stroke-opacity:1" />
      <path
         sodipodi:nodetypes="zczcccz"
         inkscape:connector-curvature="0"
         id="path1069"
         transform="matrix(0.26458333,0,0,0.26458333,0,280.06665)"
         d="m 108.4281,20.517737 c -1.01967,-0.169781 -1.78552,0.603357 -1.78552,0.603357 0,0 -0.0258,-0.225832 -1.33008,-0.3125 -1.30426,-0.08667 -2.06576,0.337315 -2.81641,0.74414 1.16578,0.740297 2.86616,1.392328 4.14649,1.419922 1.59355,0.0053 3.02119,-0.522869 4.0293,-1.179687 -0.54807,-0.487056 -1.22411,-1.105452 -2.24378,-1.275232 z"
         style="fill:#ff0000;stroke:none;stroke-width:0.99999994px;stroke-linecap:butt;stroke-linejoin:miter;stroke-opacity:1" />
      <g
         id="g1112">
        <g
           transform="translate(19.605151,-5.3791597)"
           id="g1047">
          <path
             style="opacity:1;fill:#000000;fill-opacity:1;stroke:none;stroke-width:2;stroke-linecap:round;stroke-miterlimit:4;stroke-dasharray:none;stroke-opacity:0"
             id="path1043"
             sodipodi:type="arc"
             sodipodi:cx="6.4941034"
             sodipodi:cy="287.52695"
             sodipodi:rx="1.1929874"
             sodipodi:ry="1.1929874"
             sodipodi:start="0"
             sodipodi:end="6.1667369"
             sodipodi:open="true"
             d="m 7.6870909,287.52695 a 1.1929874,1.1929874 0 0 1 -1.158262,1.19248 1.1929874,1.1929874 0 0 1 -1.2256913,-1.12306 1.1929874,1.1929874 0 0 1 1.0869071,-1.25786 1.1929874,1.1929874 0 0 1 1.2889667,1.04983" />
          <path
             d="m 11.920427,287.52695 a 1.1929874,1.1929874 0 0 1 -1.158262,1.19248 1.1929874,1.1929874 0 0 1 -1.225691,-1.12306 1.1929874,1.1929874 0 0 1 1.086907,-1.25786 1.1929874,1.1929874 0 0 1 1.288967,1.04983"
             sodipodi:open="true"
             sodipodi:end="6.1667369"
             sodipodi:start="0"
             sodipodi:ry="1.1929874"
             sodipodi:rx="1.1929874"
             sodipodi:cy="287.52695"
             sodipodi:cx="10.72744"
             sodipodi:type="arc"
             id="path1045"
             style="opacity:1;fill:#000000;fill-opacity:1;stroke:none;stroke-width:2;stroke-linecap:round;stroke-miterlimit:4;stroke-dasharray:none;stroke-opacity:0" />
        </g>
        <path
           style="opacity:1;fill:#ffffff;fill-opacity:1;stroke:none;stroke-width:0.07990416;stroke-linecap:round;stroke-miterlimit:4;stroke-dasharray:none;stroke-opacity:1"
           id="path1086"
           sodipodi:type="arc"
           sodipodi:cx="30.403952"
           sodipodi:cy="281.64313"
           sodipodi:rx="0.2716704"
           sodipodi:ry="0.26871744"
           sodipodi:start="0"
           sodipodi:end="6.1667369"
           sodipodi:open="true"
           d="m 30.675622,281.64313 a 0.2716704,0.26871744 0 0 1 -0.263763,0.2686 0.2716704,0.26871744 0 0 1 -0.279117,-0.25297 0.2716704,0.26871744 0 0 1 0.247513,-0.28333 0.2716704,0.26871744 0 0 1 0.293527,0.23648" />
        <path
           d="m 26.708341,281.65985 a 0.2716704,0.26871744 0 0 1 -0.263763,0.2686 0.2716704,0.26871744 0 0 1 -0.279118,-0.25296 0.2716704,0.26871744 0 0 1 0.247514,-0.28333 0.2716704,0.26871744 0 0 1 0.293527,0.23647"
           sodipodi:open="true"
           sodipodi:end="6.1667369"
           sodipodi:start="0"
           sodipodi:ry="0.26871744"
           sodipodi:rx="0.2716704"
           sodipodi:cy="281.65985"
           sodipodi:cx="26.43667"
           sodipodi:type="arc"
           id="path1088"
           style="opacity:1;fill:#ffffff;fill-opacity:1;stroke:none;stroke-width:0.07990416;stroke-linecap:round;stroke-miterlimit:4;stroke-dasharray:none;stroke-opacity:1" />
      </g>
    </g>
  </g>
</svg>
